<svg width="40" height="40" viewBox="0 0 40 40" fill="none" xmlns="http://www.w3.org/2000/svg">
<rect width="40" height="40" rx="20" fill="white"/>
<path d="M23.4916 11.6667H16.5083C13.475 11.6667 11.6666 13.4751 11.6666 16.5084V23.4834C11.6666 26.5251 13.475 28.3334 16.5083 28.3334H23.4833C26.5166 28.3334 28.325 26.5251 28.325 23.4917V16.5084C28.3333 13.4751 26.525 11.6667 23.4916 11.6667ZM20 23.2334C18.2166 23.2334 16.7666 21.7834 16.7666 20.0001C16.7666 18.2167 18.2166 16.7667 20 16.7667C21.7833 16.7667 23.2333 18.2167 23.2333 20.0001C23.2333 21.7834 21.7833 23.2334 20 23.2334ZM24.9333 15.7334C24.8916 15.8334 24.8333 15.9251 24.7583 16.0084C24.675 16.0834 24.5833 16.1417 24.4833 16.1834C24.3833 16.2251 24.275 16.2501 24.1666 16.2501C23.9416 16.2501 23.7333 16.1667 23.575 16.0084C23.5 15.9251 23.4416 15.8334 23.4 15.7334C23.3583 15.6334 23.3333 15.5251 23.3333 15.4167C23.3333 15.3084 23.3583 15.2001 23.4 15.1001C23.4416 14.9917 23.5 14.9084 23.575 14.8251C23.7666 14.6334 24.0583 14.5417 24.325 14.6001C24.3833 14.6084 24.4333 14.6251 24.4833 14.6501C24.5333 14.6667 24.5833 14.6917 24.6333 14.7251C24.675 14.7501 24.7166 14.7917 24.7583 14.8251C24.8333 14.9084 24.8916 14.9917 24.9333 15.1001C24.975 15.2001 25 15.3084 25 15.4167C25 15.5251 24.975 15.6334 24.9333 15.7334Z" fill="#101727"/>
</svg>
